<svg class="plant" viewBox="0 0 48 48" width="40" height="40" aria-hidden="true" focusable="false"><path d="M11 45H37" fill="none" stroke="var(--faint)" stroke-width="1" stroke-linecap="round" stroke-linejoin="round"/><path d="M24 45V25.5" fill="none" stroke="var(--p-deep)" stroke-width="1.3" stroke-linecap="round" stroke-linejoin="round"/><path d="M0 0Q3.4 -3 0 -6Q-3.4 -3 0 0Z" transform="translate(24 40) rotate(-66)" fill="var(--p-leaf)"/><path d="M0 0Q3.4 -3 0 -6Q-3.4 -3 0 0Z" transform="translate(24 40) rotate(66)" fill="var(--p-leaf)"/><path d="M0 0Q3.2 -2.8 0 -5.6Q-3.2 -2.8 0 0Z" transform="translate(24 34) rotate(-60)" fill="var(--p-leaf)"/><path d="M0 0Q3.2 -2.8 0 -5.6Q-3.2 -2.8 0 0Z" transform="translate(24 34) rotate(60)" fill="var(--p-leaf)"/><path d="M0 0Q2.8 -2.4 0 -4.8Q-2.8 -2.4 0 0Z" transform="translate(24 29) rotate(-52)" fill="var(--p-leaf)"/><path d="M0 0Q2.8 -2.4 0 -4.8Q-2.8 -2.4 0 0Z" transform="translate(24 29) rotate(52)" fill="var(--p-leaf)"/><path d="M0 0Q2.2 -1.8 0 -3.6Q-2.2 -1.8 0 0Z" transform="translate(24 26.5) rotate(0)" fill="var(--p-pale)"/></svg>
