<svg class="plant works" viewBox="0 0 48 48" width="40" height="40" aria-hidden="true" focusable="false"><path d="M5 45.4H43" fill="none" stroke="var(--faint)" stroke-width="1" stroke-linecap="round" stroke-linejoin="round"/><path d="M30.5 37.5V31.5" fill="none" stroke="var(--dim)" stroke-width="0.8" stroke-linecap="round" stroke-linejoin="round"/><circle cx="30.5" cy="31" r="1" fill="var(--p-lit)"/><rect x="14.5" y="37.5" width="19" height="7.5" fill="var(--wash)" stroke="var(--soft)" stroke-width="0.8" stroke-linejoin="round"/><rect x="16.5" y="40" width="2.2" height="2.2" fill="var(--p-lit)"/><rect x="19.7" y="40" width="2.2" height="2.2" fill="var(--p-lit)"/><rect x="22.9" y="40" width="2.2" height="2.2" fill="var(--p-lit)"/><path d="M33.5 41H37V45" fill="none" stroke="var(--dim)" stroke-width="1.1" stroke-linecap="round" stroke-linejoin="round"/><rect x="36" y="44.2" width="2" height="1" fill="var(--dim)"/><g transform="translate(24 37.5) scale(0.82) translate(-24 -45)"><path d="M24 45V25.5" fill="none" stroke="var(--p-bark)" stroke-width="1.8" stroke-linecap="round" stroke-linejoin="round"/><path d="M24 33L19 29" fill="none" stroke="var(--p-bark)" stroke-width="1.1" stroke-linecap="round" stroke-linejoin="round"/><path d="M24 30L29 26" fill="none" stroke="var(--p-bark)" stroke-width="1.1" stroke-linecap="round" stroke-linejoin="round"/><ellipse cx="18.2" cy="28.2" rx="2.7" ry="1.7" fill="var(--p-leaf)" transform="rotate(-30 18.2 28.2)"/><ellipse cx="29.8" cy="25.2" rx="2.7" ry="1.7" fill="var(--p-leaf)" transform="rotate(30 29.8 25.2)"/><ellipse cx="24" cy="24" rx="2.9" ry="1.8" fill="var(--p-leaf)"/><ellipse cx="21" cy="32.6" rx="2.3" ry="1.4" fill="var(--p-leaf)" transform="rotate(-20 21 32.6)"/><ellipse cx="27" cy="30" rx="2.2" ry="1.3" fill="var(--p-leaf)" transform="rotate(25 27 30)"/><path d="M0 0Q1 -0.85 0 -1.7Q-1 -0.85 0 0Z" transform="translate(26.6 33.6) rotate(0)" fill="var(--p-rose)"/><path d="M0 0Q1 -0.85 0 -1.7Q-1 -0.85 0 0Z" transform="translate(26.6 33.6) rotate(72)" fill="var(--p-rose)"/><path d="M0 0Q1 -0.85 0 -1.7Q-1 -0.85 0 0Z" transform="translate(26.6 33.6) rotate(144)" fill="var(--p-rose)"/><path d="M0 0Q1 -0.85 0 -1.7Q-1 -0.85 0 0Z" transform="translate(26.6 33.6) rotate(216)" fill="var(--p-rose)"/><path d="M0 0Q1 -0.85 0 -1.7Q-1 -0.85 0 0Z" transform="translate(26.6 33.6) rotate(288)" fill="var(--p-rose)"/><circle cx="26.6" cy="33.6" r="0.5" fill="var(--p-gold)"/></g></svg>
