<svg class="plant works" viewBox="0 0 48 48" width="40" height="40" aria-hidden="true" focusable="false"><path d="M5 45.4H43" fill="none" stroke="var(--faint)" stroke-width="1" stroke-linecap="round" stroke-linejoin="round"/><path d="M30.5 37.5V31.5" fill="none" stroke="var(--dim)" stroke-width="0.8" stroke-linecap="round" stroke-linejoin="round"/><circle cx="30.5" cy="31" r="1" fill="var(--p-lit)"/><rect x="14.5" y="37.5" width="19" height="7.5" fill="var(--wash)" stroke="var(--soft)" stroke-width="0.8" stroke-linejoin="round"/><rect x="16.5" y="40" width="2.2" height="2.2" fill="var(--p-lit)"/><rect x="19.7" y="40" width="2.2" height="2.2" fill="var(--p-lit)"/><rect x="22.9" y="40" width="2.2" height="2.2" fill="var(--p-lit)"/><path d="M33.5 41H37V45" fill="none" stroke="var(--dim)" stroke-width="1.1" stroke-linecap="round" stroke-linejoin="round"/><rect x="36" y="44.2" width="2" height="1" fill="var(--dim)"/><g transform="translate(24 37.5) scale(0.82) translate(-24 -45)"><path d="M19 44.8Q19 38 17 33" fill="none" stroke="var(--p-leaf)" stroke-width="0.9" stroke-linecap="round" stroke-linejoin="round"/><circle cx="15.09" cy="31.9" r="2.25" fill="var(--p-leaf)"/><circle cx="18.91" cy="31.9" r="2.25" fill="var(--p-leaf)"/><circle cx="17" cy="35.2" r="2.25" fill="var(--p-leaf)"/><circle cx="17" cy="33" r="0.7" fill="var(--p-deep)"/><path d="M24 44.8Q24 34 25 29" fill="none" stroke="var(--p-leaf)" stroke-width="0.9" stroke-linecap="round" stroke-linejoin="round"/><circle cx="22.81" cy="27.73" r="2.59" fill="var(--p-leaf)"/><circle cx="27.19" cy="27.73" r="2.59" fill="var(--p-leaf)"/><circle cx="25" cy="31.53" r="2.59" fill="var(--p-leaf)"/><circle cx="25" cy="29" r="0.7" fill="var(--p-deep)"/><path d="M29 44.8Q29 40.5 31.5 35.5" fill="none" stroke="var(--p-leaf)" stroke-width="0.9" stroke-linecap="round" stroke-linejoin="round"/><circle cx="29.79" cy="34.51" r="2.02" fill="var(--p-leaf)"/><circle cx="33.21" cy="34.51" r="2.02" fill="var(--p-leaf)"/><circle cx="31.5" cy="37.48" r="2.02" fill="var(--p-leaf)"/><circle cx="31.5" cy="35.5" r="0.7" fill="var(--p-deep)"/><circle cx="21.3" cy="38.6" r="1.9" fill="var(--p-white)" stroke="var(--faint)" stroke-width=".5"/></g></svg>
