<svg class="plant works" viewBox="0 0 48 48" width="40" height="40" aria-hidden="true" focusable="false"><path d="M5 45.4H43" fill="none" stroke="var(--faint)" stroke-width="1" stroke-linecap="round" stroke-linejoin="round"/><path d="M30.5 37.5V31.5" fill="none" stroke="var(--dim)" stroke-width="0.8" stroke-linecap="round" stroke-linejoin="round"/><circle cx="30.5" cy="31" r="1" fill="var(--p-lit)"/><rect x="14.5" y="37.5" width="19" height="7.5" fill="var(--wash)" stroke="var(--soft)" stroke-width="0.8" stroke-linejoin="round"/><rect x="16.5" y="40" width="2.2" height="2.2" fill="var(--p-lit)"/><rect x="19.7" y="40" width="2.2" height="2.2" fill="var(--p-lit)"/><rect x="22.9" y="40" width="2.2" height="2.2" fill="var(--p-lit)"/><path d="M33.5 41H37V45" fill="none" stroke="var(--dim)" stroke-width="1.1" stroke-linecap="round" stroke-linejoin="round"/><rect x="36" y="44.2" width="2" height="1" fill="var(--dim)"/><g transform="translate(24 37.5) scale(0.82) translate(-24 -45)"><path d="M0 0Q2 -3 0 -6Q-2 -3 0 0Z" transform="translate(22 44.6) rotate(-60)" fill="var(--p-leaf)"/><path d="M0 0Q2 -3 0 -6Q-2 -3 0 0Z" transform="translate(26 44.6) rotate(60)" fill="var(--p-leaf)"/><path d="M20.5 45Q19 37 19.5 30" fill="none" stroke="var(--p-leaf)" stroke-width="0.9" stroke-linecap="round" stroke-linejoin="round"/><path d="M27.5 45Q29.5 39 29 34" fill="none" stroke="var(--p-leaf)" stroke-width="0.9" stroke-linecap="round" stroke-linejoin="round"/><path d="M0 0Q1.3 -1.9 0 -3.8Q-1.3 -1.9 0 0Z" transform="translate(19.5 28) rotate(0)" fill="var(--p-white)" stroke="var(--faint)" stroke-width=".35"/><path d="M0 0Q1.3 -1.9 0 -3.8Q-1.3 -1.9 0 0Z" transform="translate(19.5 28) rotate(32.73)" fill="var(--p-white)" stroke="var(--faint)" stroke-width=".35"/><path d="M0 0Q1.3 -1.9 0 -3.8Q-1.3 -1.9 0 0Z" transform="translate(19.5 28) rotate(65.45)" fill="var(--p-white)" stroke="var(--faint)" stroke-width=".35"/><path d="M0 0Q1.3 -1.9 0 -3.8Q-1.3 -1.9 0 0Z" transform="translate(19.5 28) rotate(98.18)" fill="var(--p-white)" stroke="var(--faint)" stroke-width=".35"/><path d="M0 0Q1.3 -1.9 0 -3.8Q-1.3 -1.9 0 0Z" transform="translate(19.5 28) rotate(130.91)" fill="var(--p-white)" stroke="var(--faint)" stroke-width=".35"/><path d="M0 0Q1.3 -1.9 0 -3.8Q-1.3 -1.9 0 0Z" transform="translate(19.5 28) rotate(163.64)" fill="var(--p-white)" stroke="var(--faint)" stroke-width=".35"/><path d="M0 0Q1.3 -1.9 0 -3.8Q-1.3 -1.9 0 0Z" transform="translate(19.5 28) rotate(196.36)" fill="var(--p-white)" stroke="var(--faint)" stroke-width=".35"/><path d="M0 0Q1.3 -1.9 0 -3.8Q-1.3 -1.9 0 0Z" transform="translate(19.5 28) rotate(229.09)" fill="var(--p-white)" stroke="var(--faint)" stroke-width=".35"/><path d="M0 0Q1.3 -1.9 0 -3.8Q-1.3 -1.9 0 0Z" transform="translate(19.5 28) rotate(261.82)" fill="var(--p-white)" stroke="var(--faint)" stroke-width=".35"/><path d="M0 0Q1.3 -1.9 0 -3.8Q-1.3 -1.9 0 0Z" transform="translate(19.5 28) rotate(294.55)" fill="var(--p-white)" stroke="var(--faint)" stroke-width=".35"/><path d="M0 0Q1.3 -1.9 0 -3.8Q-1.3 -1.9 0 0Z" transform="translate(19.5 28) rotate(327.27)" fill="var(--p-white)" stroke="var(--faint)" stroke-width=".35"/><circle cx="19.5" cy="28" r="1.4" fill="var(--p-gold)"/><path d="M0 0Q1.15 -1.6 0 -3.2Q-1.15 -1.6 0 0Z" transform="translate(29 32.4) rotate(0)" fill="var(--p-white)" stroke="var(--faint)" stroke-width=".35"/><path d="M0 0Q1.15 -1.6 0 -3.2Q-1.15 -1.6 0 0Z" transform="translate(29 32.4) rotate(36)" fill="var(--p-white)" stroke="var(--faint)" stroke-width=".35"/><path d="M0 0Q1.15 -1.6 0 -3.2Q-1.15 -1.6 0 0Z" transform="translate(29 32.4) rotate(72)" fill="var(--p-white)" stroke="var(--faint)" stroke-width=".35"/><path d="M0 0Q1.15 -1.6 0 -3.2Q-1.15 -1.6 0 0Z" transform="translate(29 32.4) rotate(108)" fill="var(--p-white)" stroke="var(--faint)" stroke-width=".35"/><path d="M0 0Q1.15 -1.6 0 -3.2Q-1.15 -1.6 0 0Z" transform="translate(29 32.4) rotate(144)" fill="var(--p-white)" stroke="var(--faint)" stroke-width=".35"/><path d="M0 0Q1.15 -1.6 0 -3.2Q-1.15 -1.6 0 0Z" transform="translate(29 32.4) rotate(180)" fill="var(--p-white)" stroke="var(--faint)" stroke-width=".35"/><path d="M0 0Q1.15 -1.6 0 -3.2Q-1.15 -1.6 0 0Z" transform="translate(29 32.4) rotate(216)" fill="var(--p-white)" stroke="var(--faint)" stroke-width=".35"/><path d="M0 0Q1.15 -1.6 0 -3.2Q-1.15 -1.6 0 0Z" transform="translate(29 32.4) rotate(252)" fill="var(--p-white)" stroke="var(--faint)" stroke-width=".35"/><path d="M0 0Q1.15 -1.6 0 -3.2Q-1.15 -1.6 0 0Z" transform="translate(29 32.4) rotate(288)" fill="var(--p-white)" stroke="var(--faint)" stroke-width=".35"/><path d="M0 0Q1.15 -1.6 0 -3.2Q-1.15 -1.6 0 0Z" transform="translate(29 32.4) rotate(324)" fill="var(--p-white)" stroke="var(--faint)" stroke-width=".35"/><circle cx="29" cy="32.4" r="1.2" fill="var(--p-gold)"/></g></svg>
