<svg class="plant works" viewBox="0 0 48 48" width="40" height="40" aria-hidden="true" focusable="false"><path d="M5 45.4H43" fill="none" stroke="var(--faint)" stroke-width="1" stroke-linecap="round" stroke-linejoin="round"/><path d="M30.5 37.5V31.5" fill="none" stroke="var(--dim)" stroke-width="0.8" stroke-linecap="round" stroke-linejoin="round"/><circle cx="30.5" cy="31" r="1" fill="var(--p-lit)"/><rect x="14.5" y="37.5" width="19" height="7.5" fill="var(--wash)" stroke="var(--soft)" stroke-width="0.8" stroke-linejoin="round"/><rect x="16.5" y="40" width="2.2" height="2.2" fill="var(--p-lit)"/><rect x="19.7" y="40" width="2.2" height="2.2" fill="var(--p-lit)"/><rect x="22.9" y="40" width="2.2" height="2.2" fill="var(--p-lit)"/><path d="M33.5 41H37V45" fill="none" stroke="var(--dim)" stroke-width="1.1" stroke-linecap="round" stroke-linejoin="round"/><rect x="36" y="44.2" width="2" height="1" fill="var(--dim)"/><g transform="translate(24 37.5) scale(0.82) translate(-24 -45)"><path d="M8 44C14 40 18 44 24 40.5C30 37 34 40.5 41 36" fill="none" stroke="var(--p-stem)" stroke-width="1" stroke-linecap="round" stroke-linejoin="round"/><path d="M0 0Q2.2 -2.3 0 -4.6Q-2.2 -2.3 0 0Z" transform="translate(13.5 41.6) rotate(-48)" fill="var(--p-deep)"/><path d="M0 0Q2.2 -2.3 0 -4.6Q-2.2 -2.3 0 0Z" transform="translate(13.5 41.6) rotate(0)" fill="var(--p-deep)"/><path d="M0 0Q2.2 -2.3 0 -4.6Q-2.2 -2.3 0 0Z" transform="translate(13.5 41.6) rotate(48)" fill="var(--p-deep)"/><path d="M0 0Q2.53 -2.64 0 -5.29Q-2.53 -2.64 0 0Z" transform="translate(23.5 40.6) rotate(-48)" fill="var(--p-deep)"/><path d="M0 0Q2.53 -2.64 0 -5.29Q-2.53 -2.64 0 0Z" transform="translate(23.5 40.6) rotate(0)" fill="var(--p-deep)"/><path d="M0 0Q2.53 -2.64 0 -5.29Q-2.53 -2.64 0 0Z" transform="translate(23.5 40.6) rotate(48)" fill="var(--p-deep)"/><path d="M0 0Q2.31 -2.42 0 -4.83Q-2.31 -2.42 0 0Z" transform="translate(32.5 38.3) rotate(-48)" fill="var(--p-deep)"/><path d="M0 0Q2.31 -2.42 0 -4.83Q-2.31 -2.42 0 0Z" transform="translate(32.5 38.3) rotate(0)" fill="var(--p-deep)"/><path d="M0 0Q2.31 -2.42 0 -4.83Q-2.31 -2.42 0 0Z" transform="translate(32.5 38.3) rotate(48)" fill="var(--p-deep)"/><path d="M0 0Q1.98 -2.07 0 -4.14Q-1.98 -2.07 0 0Z" transform="translate(40 36.2) rotate(-48)" fill="var(--p-deep)"/><path d="M0 0Q1.98 -2.07 0 -4.14Q-1.98 -2.07 0 0Z" transform="translate(40 36.2) rotate(0)" fill="var(--p-deep)"/><path d="M0 0Q1.98 -2.07 0 -4.14Q-1.98 -2.07 0 0Z" transform="translate(40 36.2) rotate(48)" fill="var(--p-deep)"/></g></svg>
