<svg class="plant works" viewBox="0 0 48 48" width="40" height="40" aria-hidden="true" focusable="false"><path d="M5 45.4H43" fill="none" stroke="var(--faint)" stroke-width="1" stroke-linecap="round" stroke-linejoin="round"/><rect x="32.5" y="22" width="3.2" height="12" fill="var(--wash)" stroke="var(--soft)" stroke-width=".8"/><rect x="32.1" y="21.2" width="4" height="1.4" fill="var(--dim)"/><path d="M0 0Q1.35 -1.44 0 -2.88Q-1.35 -1.44 0 0Z" transform="translate(33.6 19.6) rotate(35)" fill="var(--p-pale)"/><path d="M0 0Q1.08 -1.17 0 -2.34Q-1.08 -1.17 0 0Z" transform="translate(35.58 17.26) rotate(-30)" fill="var(--p-leaf)"/><path d="M0 0Q0.9 -0.9 0 -1.8Q-0.9 -0.9 0 0Z" transform="translate(34.14 15.1) rotate(20)" fill="var(--p-pale)"/><rect x="9" y="34" width="30" height="11" fill="var(--wash)" stroke="var(--soft)" stroke-width="0.8" stroke-linejoin="round"/><path d="M9 34L9 30L19 34L19 30L29 34L29 30L39 34Z" fill="var(--rule)" stroke="var(--soft)" stroke-width=".8" stroke-linejoin="round"/><path d="M9.5 31.2V33.4" fill="none" stroke="var(--p-glass)" stroke-width="1" stroke-linecap="round" stroke-linejoin="round"/><path d="M19.5 31.2V33.4" fill="none" stroke="var(--p-glass)" stroke-width="1" stroke-linecap="round" stroke-linejoin="round"/><path d="M29.5 31.2V33.4" fill="none" stroke="var(--p-glass)" stroke-width="1" stroke-linecap="round" stroke-linejoin="round"/><rect x="11.5" y="37.2" width="2.4" height="2.6" fill="var(--p-lit)"/><rect x="15.9" y="37.2" width="2.4" height="2.6" fill="var(--p-lit)"/><rect x="20.3" y="37.2" width="2.4" height="2.6" fill="var(--p-lit)"/><rect x="24.7" y="37.2" width="2.4" height="2.6" fill="var(--p-lit)"/><rect x="29.1" y="37.2" width="2.4" height="2.6" fill="var(--p-lit)"/><rect x="33.5" y="37.2" width="2.4" height="2.6" fill="var(--p-lit)"/><rect x="21.5" y="41" width="5" height="4" fill="var(--dim)"/><g transform="translate(17.5 32.5) scale(0.62) translate(-24 -45)"><path d="M31 45V10" fill="none" stroke="var(--p-stem)" stroke-width="1.1" stroke-linecap="round" stroke-linejoin="round"/><path d="M24 45C22 39 29 37 27 31C25 25 31 23 29 17C28 14 30 12 32 11" fill="none" stroke="var(--p-leaf)" stroke-width="1.6" stroke-linecap="round" stroke-linejoin="round"/><ellipse cx="21.5" cy="36.5" rx="3.6" ry="2.3" fill="var(--p-leaf)" transform="rotate(-30 21.5 36.5)"/><ellipse cx="30" cy="33.5" rx="3.6" ry="2.3" fill="var(--p-leaf)" transform="rotate(28 30 33.5)"/><ellipse cx="23" cy="26.5" rx="3.2" ry="2.1" fill="var(--p-leaf)" transform="rotate(-30 23 26.5)"/><ellipse cx="32" cy="22.5" rx="3.2" ry="2.1" fill="var(--p-leaf)" transform="rotate(30 32 22.5)"/><path d="M32 11c3-1 4 2 2 3.2c-1.2.7-2-.6-1.2-1.3" fill="none" stroke="var(--p-leaf)" stroke-width="0.9" stroke-linecap="round" stroke-linejoin="round"/><path d="M0 0Q2.6 -5 0 -10Q-2.6 -5 0 0Z" transform="translate(26 30) rotate(170)" fill="var(--p-pale)"/><path d="M0 0Q2.3 -4.25 0 -8.5Q-2.3 -4.25 0 0Z" transform="translate(28 21) rotate(196)" fill="var(--p-pale)"/><path d="M25.5 32.5V38.5" fill="none" stroke="var(--p-deep)" stroke-width="0.6" stroke-linecap="round" stroke-linejoin="round"/><circle cx="34.2" cy="15.8" r="1.9" fill="var(--p-white)" stroke="var(--faint)" stroke-width=".5"/><circle cx="35.6" cy="17.4" r="1.5" fill="var(--p-white)" stroke="var(--faint)" stroke-width=".5"/></g><rect x="15.9" y="32.1" width="3.2" height="1.2" fill="var(--dim)"/></svg>
